<svg width="800" height="622" viewBox="0 0 800 622" fill="none" xmlns="http://www.w3.org/2000/svg">
<g clip-path="url(#clip0_101_2810)">
<path d="M45.1311 0C37.8789 0 32 5.89064 32 13.1571V492.732C32 499.998 37.8789 505.889 45.1311 505.889H754.869C762.121 505.889 768 499.998 768 492.732V13.1571C768 5.89064 762.121 0 754.869 0H45.1311Z" fill="url(#paint0_linear_101_2810)"/>
<path d="M423.715 135.827C423.715 141.536 421.671 146.866 417.597 151.798C412.682 157.663 406.736 161.052 400.288 160.517C400.206 159.833 400.158 159.112 400.158 158.354C400.158 152.875 402.496 147.01 406.647 142.215C408.72 139.787 411.356 137.768 414.553 136.158C417.742 134.572 420.76 133.694 423.597 133.544C423.634 133.884 423.661 134.223 423.68 134.562C423.704 134.985 423.715 135.407 423.715 135.827Z" fill="url(#paint1_linear_101_2810)"/>
<path d="M445.297 222.492C443.606 226.479 441.604 230.15 439.284 233.525C436.122 238.126 433.533 241.31 431.537 243.078C428.444 245.981 425.13 247.467 421.581 247.552C419.034 247.552 415.961 246.812 412.385 245.312C408.797 243.818 405.499 243.078 402.484 243.078C399.322 243.078 395.93 243.818 392.303 245.312C388.67 246.812 385.743 247.594 383.505 247.672C380.102 247.82 376.71 246.291 373.324 243.078C371.163 241.155 368.46 237.858 365.222 233.186C361.748 228.199 358.892 222.414 356.654 215.82C354.257 208.697 353.056 201.8 353.056 195.122C353.056 187.473 354.676 180.876 357.92 175.348C360.47 170.907 363.862 167.404 368.108 164.832C372.353 162.261 376.94 160.95 381.88 160.867C384.583 160.867 388.128 161.72 392.533 163.396C396.925 165.079 399.746 165.932 400.982 165.932C401.907 165.932 405.04 164.935 410.351 162.946C415.374 161.101 419.613 160.337 423.086 160.638C432.497 161.413 439.567 165.199 444.269 172.019C435.852 177.222 431.689 184.511 431.772 193.86C431.848 201.143 434.437 207.204 439.525 212.015C441.831 214.249 444.407 215.975 447.272 217.201C446.651 219.04 445.995 220.801 445.297 222.492Z" fill="url(#paint2_linear_101_2810)"/>
<path fill-rule="evenodd" clip-rule="evenodd" d="M729.592 478.187C734.991 478.187 739.368 473.801 739.368 468.391C739.368 462.981 734.991 458.596 729.592 458.596C724.192 458.596 719.815 462.981 719.815 468.391C719.815 473.801 724.192 478.187 729.592 478.187ZM729.592 479.246C735.575 479.246 740.425 474.386 740.425 468.391C740.425 462.396 735.575 457.537 729.592 457.537C723.608 457.537 718.758 462.396 718.758 468.391C718.758 474.386 723.608 479.246 729.592 479.246Z" fill="#B97E35"/>
<path d="M729.594 468.606C729.963 468.606 730.207 468.352 730.207 467.972V463.439C730.207 463.059 729.963 462.799 729.594 462.799C729.226 462.799 728.976 463.059 728.976 463.439V467.972C728.976 468.352 729.226 468.606 729.594 468.606ZM729.594 473.983C732.65 473.983 735.172 471.529 735.172 468.551C735.172 466.985 734.469 465.612 733.477 464.691C732.882 464.112 732.02 464.867 732.638 465.49C733.466 466.262 733.97 467.343 733.976 468.551C733.982 470.917 732.02 472.819 729.594 472.819C727.162 472.819 725.212 470.917 725.212 468.551C725.218 467.338 725.723 466.257 726.55 465.485C727.168 464.862 726.301 464.112 725.706 464.685C724.714 465.606 724.011 466.985 724.011 468.551C724.011 471.529 726.533 473.983 729.594 473.983Z" fill="#FBE9BA"/>
<rect x="312.678" y="612.132" width="174.644" height="2.63141" fill="#8C7447"/>
<path d="M312.678 614.764H487.322V620.684C487.322 621.411 486.734 622 486.009 622H313.991C313.266 622 312.678 621.411 312.678 620.684V614.764Z" fill="#E2C999"/>
<path fill-rule="evenodd" clip-rule="evenodd" d="M316.617 370.7C314.442 370.7 312.678 372.467 312.678 374.647V612.132H487.322V374.647C487.322 372.467 485.558 370.7 483.383 370.7H316.617ZM400.164 439.117C390.102 439.117 381.945 447.29 381.945 457.372V487.634C381.945 497.716 390.102 505.889 400.164 505.889C410.226 505.889 418.384 497.716 418.384 487.634V457.372C418.384 447.29 410.226 439.117 400.164 439.117Z" fill="url(#paint3_linear_101_2810)"/>
<ellipse cx="399.836" cy="472.832" rx="10.6691" ry="10.6901" fill="#535962"/>
<ellipse cx="399.836" cy="472.832" rx="7.38628" ry="7.40086" fill="#252221"/>
<ellipse cx="399.836" cy="472.832" rx="6.07317" ry="6.08513" fill="#9A9B9D"/>
<ellipse cx="399.836" cy="472.832" rx="4.1035" ry="4.11151" fill="#252221"/>
<path d="M140.989 464.773C140.989 463.32 142.164 462.142 143.615 462.142C145.065 462.142 146.241 463.32 146.241 464.773V472.668C146.241 474.121 145.065 475.299 143.615 475.299C142.164 475.299 140.989 474.121 140.989 472.668V464.773Z" fill="#202021"/>
<rect x="143.286" y="464.773" width="0.656532" height="7.89423" rx="0.328266" fill="#D3933B"/>
<path d="M161.013 464.773C161.013 463.32 162.189 462.142 163.64 462.142C165.09 462.142 166.266 463.32 166.266 464.773V472.668C166.266 474.121 165.09 475.299 163.64 475.299C162.189 475.299 161.013 474.121 161.013 472.668V464.773Z" fill="#202021"/>
<rect x="163.311" y="464.773" width="0.65657" height="7.89423" rx="0.328285" fill="#D3933B"/>
<path d="M181.039 464.773C181.039 463.32 182.214 462.142 183.665 462.142C185.115 462.142 186.291 463.32 186.291 464.773V472.668C186.291 474.121 185.115 475.299 183.665 475.299C182.214 475.299 181.039 474.121 181.039 472.668V464.773Z" fill="#202021"/>
<rect x="183.336" y="464.773" width="0.656586" height="7.89423" rx="0.328293" fill="#D3933B"/>
<path d="M201.063 464.773C201.063 463.32 202.239 462.142 203.69 462.142C205.14 462.142 206.316 463.32 206.316 464.773V472.668C206.316 474.121 205.14 475.299 203.69 475.299C202.239 475.299 201.063 474.121 201.063 472.668V464.773Z" fill="#202021"/>
<rect x="203.361" y="464.773" width="0.656555" height="7.89423" rx="0.328278" fill="#D3933B"/>
<path d="M183.106 458.108L183.285 458.181C183.684 457.824 184.205 457.536 184.85 457.318L184.986 456.981C184.748 456.988 184.528 457.01 184.325 457.045C184.128 457.073 183.957 457.108 183.81 457.15L185.301 453.571L182.728 454.803L183.589 452.055L183.148 451.95L182.013 455.592L184.451 454.445L183.411 456.992C183.278 456.725 183.046 456.41 182.717 456.045L182.581 456.382C182.889 456.992 183.064 457.567 183.106 458.108Z" fill="#FBE9BA"/>
<path d="M203.131 458.108L203.31 458.181C203.709 457.824 204.23 457.536 204.875 457.318L205.011 456.981C204.773 456.988 204.553 457.01 204.349 457.045C204.153 457.073 203.982 457.108 203.835 457.15L205.326 453.571L202.753 454.803L203.614 452.055L203.173 451.95L202.038 455.592L204.476 454.445L203.436 456.992C203.303 456.725 203.071 456.41 202.742 456.045L202.606 456.382C202.914 456.992 203.089 457.567 203.131 458.108Z" fill="#FBE9BA"/>
</g>
<defs>
<linearGradient id="paint0_linear_101_2810" x1="400" y1="0" x2="400" y2="505.889" gradientUnits="userSpaceOnUse">
<stop stop-color="#EEB055"/>
<stop offset="1" stop-color="#D08F38"/>
</linearGradient>
<linearGradient id="paint1_linear_101_2810" x1="400.164" y1="133.544" x2="400.164" y2="247.682" gradientUnits="userSpaceOnUse">
<stop stop-color="#FBE9BA"/>
<stop offset="1" stop-color="#E7C885"/>
</linearGradient>
<linearGradient id="paint2_linear_101_2810" x1="400.164" y1="133.544" x2="400.164" y2="247.682" gradientUnits="userSpaceOnUse">
<stop stop-color="#FBE9BA"/>
<stop offset="1" stop-color="#E7C885"/>
</linearGradient>
<linearGradient id="paint3_linear_101_2810" x1="400" y1="370.7" x2="400" y2="612.132" gradientUnits="userSpaceOnUse">
<stop stop-color="#EFD6A6"/>
<stop offset="1" stop-color="#CFB686"/>
</linearGradient>
<clipPath id="clip0_101_2810">
<rect width="736" height="622" fill="white" transform="translate(32)"/>
</clipPath>
</defs>
</svg>
